<svg width="24" height="24" viewBox="0 0 24 24" fill="none" xmlns="http://www.w3.org/2000/svg">
<path d="M5 6C5 5.73478 5.10536 5.48043 5.29289 5.29289C5.48043 5.10536 5.73478 5 6 5H18C18.2652 5 18.5196 5.10536 18.7071 5.29289C18.8946 5.48043 19 5.73478 19 6V18C19 18.2652 18.8946 18.5196 18.7071 18.7071C18.5196 18.8946 18.2652 19 18 19H6C5.73478 19 5.48043 18.8946 5.29289 18.7071C5.10536 18.5196 5 18.2652 5 18V6Z" stroke="#64645F" stroke-width="1.25" stroke-linecap="round" stroke-linejoin="round"/>
<path d="M9 9H15V15H9V9Z" stroke="#64645F" stroke-width="1.25" stroke-linecap="round" stroke-linejoin="round"/>
<path d="M3 10H5" stroke="#64645F" stroke-width="1.25" stroke-linecap="round" stroke-linejoin="round"/>
<path d="M3 14H5" stroke="#64645F" stroke-width="1.25" stroke-linecap="round" stroke-linejoin="round"/>
<path d="M10 3V5" stroke="#64645F" stroke-width="1.25" stroke-linecap="round" stroke-linejoin="round"/>
<path d="M14 3V5" stroke="#64645F" stroke-width="1.25" stroke-linecap="round" stroke-linejoin="round"/>
<path d="M21 10H19" stroke="#64645F" stroke-width="1.25" stroke-linecap="round" stroke-linejoin="round"/>
<path d="M21 14H19" stroke="#64645F" stroke-width="1.25" stroke-linecap="round" stroke-linejoin="round"/>
<path d="M14 21V19" stroke="#64645F" stroke-width="1.25" stroke-linecap="round" stroke-linejoin="round"/>
<path d="M10 21V19" stroke="#64645F" stroke-width="1.25" stroke-linecap="round" stroke-linejoin="round"/>
</svg>
