<svg width="18" height="15" viewBox="0 0 18 15" fill="none" xmlns="http://www.w3.org/2000/svg">
<path d="M0 14.0625C0 14.582 0.429911 15 0.964286 15C1.49866 15 1.92857 14.582 1.92857 14.0625V0.9375C1.92857 0.417969 1.49866 0 0.964286 0C0.429911 0 0 0.417969 0 0.9375V14.0625ZM5.44821 6.81641C5.25536 6.99219 5.14286 7.24219 5.14286 7.5C5.14286 7.75781 5.25134 8.00391 5.44821 8.18359L10.9125 13.1836C11.3022 13.5391 11.9089 13.5195 12.2746 13.1445C12.6402 12.7695 12.6201 12.1758 12.2344 11.8203L8.53795 8.4375H11.8929H17.0357C17.5701 8.4375 18 8.01953 18 7.5C18 6.98047 17.5701 6.5625 17.0357 6.5625H11.8929H8.53795L12.2304 3.18359C12.6201 2.82812 12.6362 2.23438 12.2705 1.85938C11.9049 1.48438 11.2942 1.46484 10.9085 1.82031L5.4442 6.82031L5.44821 6.81641Z" fill="black"/>
</svg>
