<svg width="30" height="24" viewBox="0 0 30 24" fill="none" xmlns="http://www.w3.org/2000/svg">
<path d="M15 2.4C15.3 2.4 15.9 3.21094 16.425 4.8C16.65 5.46094 16.8469 6.27188 17.0109 7.2C17.1469 7.92188 17.25 8.71406 17.3109 9.6C17.3719 10.35 17.4 11.1469 17.4 12H19.8C19.8 11.2031 19.7719 10.3969 19.7109 9.6C19.65 8.78906 19.5609 7.97813 19.4391 7.2C19.3031 6.36094 19.1391 5.55 18.9281 4.8C18.75 4.15313 18.5531 3.55312 18.3141 3C17.5359 1.18594 16.4391 0 15 0C13.5609 0 12.4641 1.18594 11.6859 3C11.4469 3.53906 11.25 4.15313 11.0719 4.8H13.5937C14.1187 3.21094 14.7047 2.4 15.0187 2.4H15ZM15 21.6C14.7 21.6 14.1 20.7891 13.575 19.2C13.35 18.5391 13.1531 17.7281 12.9891 16.8C12.8531 16.0781 12.75 15.2859 12.6891 14.4C12.6281 13.65 12.6 12.8531 12.6 12H10.2C10.2 12.7969 10.2281 13.6031 10.2891 14.4C10.35 15.2109 10.4391 16.0219 10.5609 16.8C10.6969 17.6391 10.8609 18.45 11.0719 19.2C11.25 19.8469 11.4469 20.4469 11.6859 21C12.4641 22.8141 13.5609 24 15 24C16.4391 24 17.5359 22.8141 18.3141 21C18.5531 20.4609 18.75 19.8469 18.9281 19.2H16.4109C15.8859 20.7891 15.3 21.6 14.9859 21.6H15ZM25.8 6.81094C25.4531 6.10781 25.05 5.43281 24.5719 4.8C23.4 3.25313 21.8719 1.99688 20.1 1.15313C18.5531 0.421875 16.8281 0 15 0C13.1719 0 11.4469 0.421875 9.9 1.15313C8.12812 1.99219 6.6 3.25313 5.42812 4.8C4.96406 5.42812 4.54219 6.08906 4.2 6.81094C3.43594 8.38594 3 10.1391 3 12C3 13.8609 3.43594 15.6141 4.2 17.1891C4.54687 17.8922 4.95 18.5672 5.42812 19.2C6.6 20.7469 8.12812 22.0031 9.9 22.8469C11.4469 23.5781 13.1719 24 15 24C16.8281 24 18.5531 23.5781 20.1 22.8469C21.8719 22.0078 23.4 20.7469 24.5719 19.2C25.0359 18.5719 25.4578 17.9109 25.8 17.1891C26.5641 15.6141 27 13.8609 27 12C27 10.1391 26.5641 8.38594 25.8 6.81094ZM18.3141 21C17.2781 21.3891 16.1672 21.6 15 21.6C13.8328 21.6 12.7219 21.375 11.6859 21C10.575 20.5781 9.55781 19.9781 8.67187 19.2C8.625 19.1719 8.59687 19.125 8.55 19.0969C7.81406 18.4359 7.18594 17.6578 6.68906 16.8H8.11406C8.01094 16.0219 7.91719 15.2109 7.875 14.4H5.71406C5.51719 13.6359 5.4 12.825 5.4 12C5.4 11.175 5.52187 10.3641 5.71406 9.6H15V7.2H6.70312C7.2 6.34688 7.82812 5.56406 8.56406 4.90312C8.61094 4.875 8.63906 4.82812 8.68594 4.8C9.57187 4.03594 10.575 3.42188 11.7 3C12.7359 2.61094 13.8469 2.4 15.0141 2.4C16.1812 2.4 17.2922 2.625 18.3281 3C19.4391 3.42188 20.4562 4.02187 21.3422 4.8C21.3891 4.82812 21.4172 4.875 21.4641 4.90312C22.2 5.56406 22.8281 6.34219 23.325 7.2H21.9C22.0031 7.97813 22.0969 8.78906 22.1391 9.6H24.3C24.4969 10.3641 24.6141 11.175 24.6141 12C24.6141 12.825 24.4922 13.6359 24.3 14.4H15.0141V16.8H23.3109C22.8141 17.6531 22.1859 18.4359 21.45 19.0969C21.4031 19.125 21.375 19.1719 21.3281 19.2C20.4422 19.9641 19.4391 20.5781 18.3141 21Z" fill="#64645F"/>
</svg>
