<svg width="24" height="24" viewBox="0 0 24 24" fill="none" xmlns="http://www.w3.org/2000/svg">
<path d="M24 13.2H21.6V12C21.6 6.70312 17.2969 2.4 12 2.4C6.70312 2.4 2.4 6.70312 2.4 12V13.2H0V12C0 5.38594 5.38594 0 12 0C18.6141 0 24 5.38594 24 12V13.2ZM19.2 13.2H16.8V12C16.8 9.36094 14.6391 7.2 12 7.2C9.36094 7.2 7.2 9.36094 7.2 12V13.2H4.8V12C4.8 8.025 8.025 4.8 12 4.8C15.975 4.8 19.2 8.025 19.2 12V13.2ZM16.8 15.6C14.8359 15.6 13.0969 16.5609 12 18.0281C10.9031 16.5562 9.16406 15.6 7.2 15.6H0V18H7.2C9.17813 18 10.8 19.6219 10.8 21.6V22.8H13.2V21.6C13.2 19.6219 14.8219 18 16.8 18H24V15.6H16.8ZM12 14.4C12.6365 14.4 13.247 14.1471 13.6971 13.6971C14.1471 13.247 14.4 12.6365 14.4 12C14.4 11.3635 14.1471 10.753 13.6971 10.3029C13.247 9.85286 12.6365 9.6 12 9.6C11.3635 9.6 10.753 9.85286 10.3029 10.3029C9.85286 10.753 9.6 11.3635 9.6 12C9.6 12.6365 9.85286 13.247 10.3029 13.6971C10.753 14.1471 11.3635 14.4 12 14.4Z" fill="#64645F"/>
</svg>
