<svg width="23" height="23" viewBox="0 0 23 23" fill="none" xmlns="http://www.w3.org/2000/svg">
<path d="M10.6375 12.9375C11.2475 12.9375 11.8325 12.6952 12.2638 12.2638C12.6952 11.8325 12.9375 11.2475 12.9375 10.6375C12.9375 10.0275 12.6952 9.44249 12.2638 9.01115C11.8325 8.57982 11.2475 8.3375 10.6375 8.3375C10.0275 8.3375 9.44249 8.57982 9.01115 9.01115C8.57982 9.44249 8.3375 10.0275 8.3375 10.6375C8.3375 11.2475 8.57982 11.8325 9.01115 12.2638C9.44249 12.6952 10.0275 12.9375 10.6375 12.9375ZM19.5365 17.9104C19.0469 18.4988 18.5033 19.0469 17.9104 19.5365L20.9875 22.6137L22.6137 20.9875L19.5365 17.9104ZM10.6375 1.4375C13.0775 1.4375 15.4175 2.40678 17.1429 4.13212C18.8682 5.85745 19.8375 8.19751 19.8375 10.6375C19.8375 13.0775 18.8682 15.4175 17.1429 17.1429C15.4175 18.8682 13.0775 19.8375 10.6375 19.8375C8.19751 19.8375 5.85745 18.8682 4.13212 17.1429C2.40678 15.4175 1.4375 13.0775 1.4375 10.6375C1.4375 8.19751 2.40678 5.85745 4.13212 4.13212C5.85745 2.40678 8.19751 1.4375 10.6375 1.4375ZM10.6375 3.7375C9.73138 3.7375 8.83413 3.91597 7.99698 4.26273C7.15984 4.60949 6.39919 5.11774 5.75846 5.75846C5.11774 6.39919 4.60949 7.15984 4.26273 7.99698C3.91597 8.83413 3.7375 9.73138 3.7375 10.6375C3.7375 11.5436 3.91597 12.4409 4.26273 13.278C4.60949 14.1152 5.11774 14.8758 5.75846 15.5165C6.39919 16.1573 7.15984 16.6655 7.99698 17.0123C8.83413 17.359 9.73138 17.5375 10.6375 17.5375C12.4675 17.5375 14.2225 16.8105 15.5165 15.5165C16.8105 14.2225 17.5375 12.4675 17.5375 10.6375C17.5375 8.80751 16.8105 7.05246 15.5165 5.75846C14.2225 4.46446 12.4675 3.7375 10.6375 3.7375Z" fill="#13343B"/>
</svg>
