<svg width="42" height="42" viewBox="0 0 42 42" fill="none" xmlns="http://www.w3.org/2000/svg">
<path fill-rule="evenodd" clip-rule="evenodd" d="M8.7675 31.2077H28.0577C29.8252 31.2247 31.5712 30.8191 33.1502 30.0247C34.8107 29.1903 36.1931 27.8917 37.1297 26.2867C38.0397 24.7467 38.5 22.9687 38.5 21C38.5 19.0312 38.0397 17.255 37.1315 15.715C36.196 14.1114 34.8155 12.8135 33.1572 11.9787C31.5762 11.1826 29.8278 10.7758 28.0577 10.7922H3.5315V12.8502H28.0577C29.5435 12.8502 30.9207 13.1687 32.1545 13.7987C33.4518 14.4519 34.5316 15.4678 35.2625 16.723L35.266 16.73C35.9905 17.955 36.358 19.39 36.358 21C36.358 22.61 35.9905 24.0467 35.2642 25.2735L35.2607 25.2787C34.5291 26.535 33.4481 27.5516 32.1492 28.2047C30.9207 28.833 29.5417 29.1497 28.0577 29.1497H8.76925L8.7675 31.2077ZM5.97625 16.744C8.092 14.518 12.4022 15.169 13.916 17.9165C14.4287 18.7565 14.6895 19.7925 14.6895 21C14.7612 24.115 12.5545 26.6192 9.345 26.6C7.9065 26.6 6.776 26.0627 5.97625 25.2525C5.91325 25.1877 5.79775 25.2315 5.79775 25.3225V31.2077H3.5V15.8025H5.796V16.6775C5.796 16.7667 5.91325 16.8105 5.97625 16.744ZM11.4625 23.7702C12.0785 23.1437 12.3917 22.1252 12.3917 21C12.3917 19.8712 12.0802 18.8597 11.4607 18.2455C10.3407 16.9855 7.74025 16.9995 6.60975 18.2472C5.39 19.432 5.40225 22.5785 6.60975 23.7702C7.74025 24.9917 10.3407 25.0057 11.4625 23.7702ZM32.9525 17.9777C31.045 14.532 25.067 14.5372 23.1455 17.9777C22.6607 18.8177 22.414 19.8327 22.414 21C22.3475 24.29 24.682 26.621 28.0577 26.6C31.4317 26.621 33.7592 24.2672 33.7015 21C33.7015 19.8327 33.4512 18.816 32.9525 17.9777ZM31.402 21C31.402 22.127 31.0887 23.1437 30.471 23.7702C29.351 25.0057 26.7487 24.9935 25.6182 23.7702C24.4107 22.5785 24.3985 19.4302 25.6182 18.249C26.7487 16.9995 29.3492 16.9872 30.471 18.2455C31.0905 18.8615 31.402 19.8712 31.402 20.9982V21ZM19.222 16.0125C19.6577 15.7745 20.2562 15.652 21.0017 15.652H22.1095V17.885C21.917 17.8885 21.7122 17.885 21.5022 17.8832C20.5537 17.8692 19.4862 17.8552 18.8982 18.4397C18.5097 18.8072 18.3137 19.4372 18.3137 20.3157V26.306H16.0195V15.8025H18.3155V16.6775C18.3155 16.7755 18.452 16.814 18.508 16.7282C18.7302 16.3835 18.9665 16.149 19.2237 16.0142L19.222 16.0125Z" fill="#21808D"/>
</svg>
