<svg width="24" height="24" viewBox="0 0 24 24" fill="none" xmlns="http://www.w3.org/2000/svg">
<path d="M1.5 11.1V8.7C5.475 8.7 8.7 5.475 8.7 1.5H11.1C11.1 6.79688 6.79688 11.1 1.5 11.1ZM23.1 11.1C17.8031 11.1 13.5 6.79688 13.5 1.5H15.9C15.9 5.475 19.125 8.7 23.1 8.7V11.1ZM11.1 23.1H8.7C8.7 19.125 5.475 15.9 1.5 15.9V13.5C6.79688 13.5 11.1 17.8031 11.1 23.1ZM15.9 23.1H13.5C13.5 17.8031 17.8031 13.5 23.1 13.5V15.9C19.125 15.9 15.9 19.125 15.9 23.1ZM12.3 14.7C12.9365 14.7 13.547 14.4471 13.9971 13.9971C14.4471 13.547 14.7 12.9365 14.7 12.3C14.7 11.6635 14.4471 11.053 13.9971 10.6029C13.547 10.1529 12.9365 9.9 12.3 9.9C11.6635 9.9 11.053 10.1529 10.6029 10.6029C10.1529 11.053 9.9 11.6635 9.9 12.3C9.9 12.9365 10.1529 13.547 10.6029 13.9971C11.053 14.4471 11.6635 14.7 12.3 14.7Z" fill="#64645F"/>
</svg>
