<svg width="21" height="21" viewBox="0 0 21 21" fill="none" xmlns="http://www.w3.org/2000/svg">
<g clip-path="url(#clip0_16_55)">
<path d="M10.5 0C11.1973 0 11.8781 0.0697266 12.5426 0.196875C12.8666 0.258398 13.4367 0.44707 13.7484 1.02129C13.8305 1.17305 13.8961 1.33301 13.9371 1.50527L14.3185 3.08437C14.376 3.32227 14.7779 3.55605 15.0117 3.48633L16.5703 3.02695C16.7344 2.97773 16.9025 2.95312 17.0707 2.94902C17.731 2.92852 18.1781 3.33457 18.3955 3.58066C19.3019 4.61016 19.9992 5.82012 20.4422 7.12031C20.5488 7.43203 20.6719 8.01445 20.3314 8.57227C20.2412 8.71992 20.1305 8.85938 20.0033 8.98242L18.8262 10.1021C18.6539 10.2662 18.6539 10.7379 18.8262 10.902L20.0033 12.0217C20.1305 12.1447 20.2412 12.2842 20.3314 12.4318C20.6678 12.9896 20.5447 13.5721 20.4422 13.8838C19.9992 15.184 19.3019 16.3898 18.3955 17.4234C18.1781 17.6695 17.7269 18.0756 17.0707 18.0551C16.9025 18.051 16.7344 18.0223 16.5703 17.9771L15.0117 17.5137C14.7779 17.4439 14.376 17.6777 14.3185 17.9156L13.9371 19.4947C13.8961 19.667 13.8305 19.8311 13.7484 19.9787C13.4326 20.5529 12.8625 20.7375 12.5426 20.8031C11.8781 20.9303 11.1973 21 10.5 21C9.80272 21 9.12186 20.9303 8.45741 20.8031C8.13338 20.7416 7.56327 20.5529 7.25155 19.9787C7.16952 19.827 7.10389 19.667 7.06287 19.4947L6.68143 17.9156C6.62401 17.6777 6.22205 17.4439 5.98827 17.5137L4.42967 17.973C4.26561 18.0223 4.09744 18.0469 3.92928 18.051C3.26893 18.0715 2.82186 17.6654 2.60448 17.4193C1.70213 16.3898 1.00076 15.1799 0.557796 13.8797C0.451155 13.568 0.328108 12.9855 0.668538 12.4277C0.758772 12.2801 0.869515 12.1406 0.996663 12.0176L2.17381 10.8979C2.34608 10.7338 2.34608 10.2621 2.17381 10.098L0.992562 8.97832C0.865413 8.85527 0.754671 8.71582 0.664437 8.56816C0.328108 8.01035 0.451155 7.42793 0.557796 7.12031C1.00076 5.82012 1.69803 4.61426 2.60448 3.58066C2.82186 3.33457 3.27303 2.92852 3.92928 2.94902C4.09744 2.95312 4.26561 2.98184 4.42967 3.02695L5.98827 3.48633C6.22205 3.55605 6.62401 3.32227 6.68143 3.08437L7.06287 1.50527C7.10389 1.33301 7.16952 1.16895 7.25155 1.02129C7.56737 0.44707 8.13748 0.2625 8.45741 0.196875C9.12186 0.0697266 9.80272 0 10.5 0ZM8.94549 2.1082L8.59686 3.54785C8.27694 4.87266 6.73885 5.75859 5.43045 5.37715L4.01541 4.95879C3.33866 5.75039 2.80545 6.66914 2.45682 7.65352L3.53143 8.6748C4.5158 9.60996 4.5158 11.39 3.53143 12.3252L2.45682 13.3465C2.80545 14.3309 3.33866 15.2496 4.01541 16.0412L5.43455 15.6229C6.73885 15.2373 8.28104 16.1273 8.60096 17.4521L8.94959 18.8918C9.95858 19.0764 11.0537 19.0764 12.0627 18.8918L12.4113 17.4521C12.7312 16.1273 14.2693 15.2414 15.5777 15.6229L16.9969 16.0412C17.6736 15.2496 18.2068 14.3309 18.5555 13.3465L17.4808 12.3252C16.4965 11.39 16.4965 9.60996 17.4808 8.6748L18.5555 7.65352C18.2068 6.66914 17.6736 5.75039 16.9969 4.95879L15.5777 5.37715C14.2734 5.7627 12.7312 4.87266 12.4113 3.54785L12.0627 2.1082C11.0537 1.92363 9.95858 1.92363 8.94959 2.1082H8.94549ZM8.53123 10.5C8.53123 11.0221 8.73866 11.5229 9.10787 11.8921C9.47708 12.2613 9.97784 12.4688 10.5 12.4688C11.0221 12.4688 11.5229 12.2613 11.8921 11.8921C12.2613 11.5229 12.4687 11.0221 12.4687 10.5C12.4687 9.97785 12.2613 9.4771 11.8921 9.10788C11.5229 8.73867 11.0221 8.53125 10.5 8.53125C9.97784 8.53125 9.47708 8.73867 9.10787 9.10788C8.73866 9.4771 8.53123 9.97785 8.53123 10.5ZM10.5 14.4375C9.45569 14.4375 8.45418 14.0227 7.71575 13.2842C6.97733 12.5458 6.56248 11.5443 6.56248 10.5C6.56248 9.45571 6.97733 8.45419 7.71575 7.71577C8.45418 6.97734 9.45569 6.5625 10.5 6.5625C11.5443 6.5625 12.5458 6.97734 13.2842 7.71577C14.0226 8.45419 14.4375 9.45571 14.4375 10.5C14.4375 11.5443 14.0226 12.5458 13.2842 13.2842C12.5458 14.0227 11.5443 14.4375 10.5 14.4375Z" fill="#64645F"/>
</g>
<defs>
<clipPath id="clip0_16_55">
<rect width="21" height="21" fill="white"/>
</clipPath>
</defs>
</svg>
