<svg width="48" height="48" viewBox="0 0 48 48" fill="none" xmlns="http://www.w3.org/2000/svg">
<circle cx="24" cy="24" r="24" fill="#21808D"/>
<path d="M31 21C31.2652 21 31.5196 21.1054 31.7071 21.2929C31.8946 21.4804 32 21.7348 32 22C32.0002 23.9485 31.2893 25.8301 30.0006 27.2917C28.712 28.7532 26.9342 29.6942 25.001 29.938L25 32H28C28.2652 32 28.5196 32.1054 28.7071 32.2929C28.8946 32.4804 29 32.7348 29 33C29 33.2652 28.8946 33.5196 28.7071 33.7071C28.5196 33.8946 28.2652 34 28 34H20C19.7348 34 19.4804 33.8946 19.2929 33.7071C19.1054 33.5196 19 33.2652 19 33C19 32.7348 19.1054 32.4804 19.2929 32.2929C19.4804 32.1054 19.7348 32 20 32H23V29.938C21.0666 29.6944 19.2886 28.7535 17.9998 27.292C16.7109 25.8304 15.9998 23.9487 16 22C16 21.7348 16.1054 21.4804 16.2929 21.2929C16.4804 21.1054 16.7348 21 17 21C17.2652 21 17.5196 21.1054 17.7071 21.2929C17.8946 21.4804 18 21.7348 18 22C18 23.5913 18.6321 25.1174 19.7574 26.2426C20.8826 27.3679 22.4087 28 24 28C25.5913 28 27.1174 27.3679 28.2426 26.2426C29.3679 25.1174 30 23.5913 30 22C30 21.7348 30.1054 21.4804 30.2929 21.2929C30.4804 21.1054 30.7348 21 31 21ZM24 13C25.0609 13 26.0783 13.4214 26.8284 14.1716C27.5786 14.9217 28 15.9391 28 17V22C28 23.0609 27.5786 24.0783 26.8284 24.8284C26.0783 25.5786 25.0609 26 24 26C22.9391 26 21.9217 25.5786 21.1716 24.8284C20.4214 24.0783 20 23.0609 20 22V17C20 15.9391 20.4214 14.9217 21.1716 14.1716C21.9217 13.4214 22.9391 13 24 13Z" fill="white"/>
</svg>
