<svg width="210" height="48" viewBox="0 0 210 48" fill="none" xmlns="http://www.w3.org/2000/svg">
<path d="M103.413 14.7129H105.017V18.0329H102.942C101.314 18.0329 100.101 18.4264 99.2985 19.2134C98.4979 20.0005 98.0963 21.2921 98.0963 23.0881V33.9698H94.8182V14.7868H98.0963V17.848C98.0963 18.0197 98.1824 18.1068 98.352 18.1068C98.448 18.1068 98.521 18.083 98.5709 18.0329C98.6202 17.9827 98.6675 17.885 98.7168 17.7371C99.3479 15.7218 100.915 14.7129 103.416 14.7129H103.413ZM124.826 18.8252C125.686 20.3624 126.119 22.2139 126.119 24.377C126.119 26.5401 125.689 28.3916 124.826 29.9288C123.963 31.466 122.846 32.6149 121.475 33.3782C120.103 34.1415 118.627 34.5219 117.049 34.5219C113.941 34.5219 111.756 33.2673 110.494 30.7581C110.397 30.5627 110.274 30.4623 110.128 30.4623C109.982 30.4623 109.909 30.5363 109.909 30.6842V40.9769H106.631V14.7868H109.909V18.0698C109.909 18.2177 109.982 18.2917 110.128 18.2917C110.274 18.2917 110.394 18.194 110.494 17.9959C111.756 15.4868 113.941 14.2322 117.049 14.2322C118.627 14.2322 120.103 14.6125 121.475 15.3758C122.846 16.1391 123.963 17.288 124.826 18.8252ZM122.841 24.377C122.841 22.1135 122.242 20.3492 121.039 19.0841C119.837 17.8189 118.254 17.1851 116.285 17.1851C114.316 17.1851 112.733 17.8189 111.531 19.0841C110.329 20.3518 109.888 22.1161 109.888 24.377C109.888 26.6379 110.329 28.4048 111.531 29.67C112.733 30.9377 114.319 31.569 116.285 31.569C118.252 31.569 119.837 30.9351 121.039 29.67C122.242 28.4048 122.841 26.6379 122.841 24.377ZM70.6624 18.8543C71.5234 20.3915 71.956 22.2429 71.956 24.406C71.956 26.5692 71.526 28.4207 70.6624 29.9579C69.7993 31.495 68.6832 32.644 67.3119 33.4073C65.94 34.1706 64.4637 34.5509 62.8861 34.5509C59.7781 34.5509 57.5925 33.2963 56.3304 30.7872C56.2338 30.5917 56.1115 30.4914 55.9656 30.4914C55.8191 30.4914 55.7461 30.5653 55.7461 30.7132V41.006H52.4709V14.8159H55.7487V18.0989C55.7487 18.2468 55.8217 18.3208 55.9682 18.3208C56.1141 18.3208 56.2338 18.223 56.3331 18.0249C57.5952 15.5158 59.7802 14.2612 62.8887 14.2612C64.4664 14.2612 65.9427 14.6416 67.3145 15.4049C68.6858 16.1682 69.8019 17.3171 70.665 18.8543H70.6624ZM68.6779 24.406C68.6779 22.1426 68.0784 20.3782 66.8761 19.1131C65.6739 17.848 64.091 17.2141 62.1222 17.2141C60.1535 17.2141 58.5706 17.848 57.3684 19.1131C56.1661 20.3809 55.7256 22.1452 55.7256 24.406C55.7256 26.6669 56.1661 28.4339 57.3684 29.699C58.5706 30.9668 60.1535 31.598 62.1222 31.598C64.091 31.598 65.6739 30.9642 66.8761 29.699C68.0784 28.4339 68.6779 26.6669 68.6779 24.406ZM88.7838 27.8792H92.2441C91.7826 29.6752 90.8413 31.2309 89.4228 32.5462C88.0016 33.8615 85.9677 34.5192 83.3207 34.5192C81.3283 34.5192 79.5759 34.1072 78.0581 33.2831C76.5403 32.4591 75.3696 31.2864 74.5427 29.7598C73.7163 28.2358 73.3042 26.4398 73.3042 24.3743C73.3042 22.309 73.7058 20.5129 74.5065 18.989C75.3071 17.465 76.4311 16.2897 77.8759 15.4656C79.3202 14.6416 81.0128 14.2295 82.9558 14.2295C84.8983 14.2295 86.5074 14.6363 87.8556 15.4471C89.2038 16.258 90.2103 17.3356 90.8781 18.6747C91.5453 20.0164 91.8792 21.4849 91.8792 23.0828V25.2962H76.765C76.8847 27.2137 77.5236 28.7403 78.676 29.8707C79.8289 31.0011 81.3777 31.569 83.3207 31.569C84.8983 31.569 86.1084 31.2441 86.9453 30.5917C87.7827 29.9393 88.3953 29.0361 88.7838 27.8792ZM76.8012 22.5308H88.2389C88.2389 20.859 87.8136 19.5489 86.9637 18.6007C86.1137 17.6552 84.7786 17.1798 82.9579 17.1798C81.258 17.1798 79.8678 17.6419 78.7884 18.5638C77.709 19.4855 77.0464 20.8087 76.8039 22.5282L76.8012 22.5308ZM128.714 33.9672H131.992V7.40735H128.714V33.9698V33.9672ZM174.196 12.6924H178.024V8.54041H174.196V12.6924ZM187.701 31.1094C187.106 31.1701 186.747 31.2018 186.626 31.2018C186.457 31.2018 186.321 31.1517 186.225 31.0539C186.129 30.9562 186.079 30.8215 186.079 30.6472C186.079 30.5257 186.11 30.1612 186.17 29.559C186.23 28.9568 186.262 28.0271 186.262 26.7752V17.5971H190.937L190.017 14.7868H186.264V9.62068H182.986V14.7842H179.421V17.5944H182.986V27.6944C182.986 29.8099 183.497 31.3841 184.517 32.4168C185.537 33.4495 187.091 33.9672 189.18 33.9672H191.73V31.017H190.455C189.216 31.017 188.298 31.0487 187.704 31.1094H187.701ZM206.881 14.7842L201.455 30.8796C201.381 31.0777 201.267 31.3366 200.894 31.3366C200.521 31.3366 200.406 31.0777 200.333 30.8796L194.906 14.7842H191.563L197.848 33.9672H200.07C200.216 33.9672 200.325 33.9804 200.398 34.0041C200.471 34.0279 200.531 34.0887 200.581 34.189C200.677 34.3369 200.664 34.5588 200.544 34.852L199.525 37.6543C199.379 38.0241 199.099 38.2089 198.687 38.2089C198.541 38.2089 198.203 38.1772 197.668 38.1165C197.133 38.0558 196.442 38.0241 195.592 38.0241H192.932V40.9743H196.429C198.468 40.9743 199.697 40.623 200.753 39.9231C201.809 39.2232 202.628 37.9871 203.212 36.2148L210 15.5185V14.7816H206.881V14.7842ZM163.488 21.9418L158.354 14.7842H154.747V15.5211L160.901 23.8223L153.399 33.2303V33.9672H157.078L163.052 26.2575L168.625 33.9672H172.159V33.2303L165.64 24.377L172.707 15.5607V14.7868H169.027L163.491 21.9445L163.488 21.9418ZM174.545 33.9672H177.823V14.7868H174.545V33.9698V33.9672ZM153.547 27.8792C153.086 29.6752 152.144 31.2309 150.726 32.5462C149.305 33.8615 147.27 34.5192 144.624 34.5192C142.632 34.5192 140.879 34.1072 139.361 33.2831C137.844 32.4591 136.673 31.2864 135.846 29.7598C135.02 28.2358 134.607 26.4398 134.607 24.3743C134.607 22.309 135.009 20.5129 135.81 18.989C136.61 17.465 137.734 16.2897 139.179 15.4656C140.623 14.6416 142.316 14.2295 144.258 14.2295C146.202 14.2295 147.81 14.6363 149.158 15.4471C150.506 16.258 151.513 17.3356 152.181 18.6747C152.849 20.0164 153.182 21.4849 153.182 23.0828V25.2962H138.068C138.188 27.2137 138.827 28.7403 139.979 29.8707C141.132 31.0011 142.681 31.569 144.624 31.569C146.201 31.569 147.411 31.2441 148.248 30.5917C149.085 29.9393 149.699 29.0361 150.087 27.8792H153.547ZM138.104 22.5308H149.542C149.542 20.859 149.117 19.5489 148.267 18.6007C147.416 17.6552 146.081 17.1798 144.261 17.1798C142.561 17.1798 141.171 17.6419 140.092 18.5638C139.012 19.4855 138.35 20.8087 138.107 22.5282L138.104 22.5308Z" fill="#13343B"/>
<path d="M17.7844 14.8157H7.75317V5.41333L17.7844 14.8157Z" stroke="#21808D" stroke-width="2"/>
<path d="M33.0355 14.8738H23.0043L33.0355 5.47241V14.8738Z" stroke="#21808D" stroke-width="2"/>
<mask id="path-4-inside-1_16_42" fill="white">
<path d="M20.3295 1.05493V47.6062V1.05493Z"/>
</mask>
<path d="M18.3295 1.05493V47.6062H22.3295V1.05493H18.3295Z" fill="#21808D" mask="url(#path-4-inside-1_16_42)"/>
<path d="M32.875 28.7936V43.108L21.3145 32.7526V18.1129L32.875 28.7936Z" stroke="#21808D" stroke-width="2"/>
<path d="M19.3291 32.7526L7.76855 43.109V28.7936L19.3291 18.1129V32.7526Z" stroke="#21808D" stroke-width="2"/>
<path d="M17.7729 16.8153L6.08643 27.6093L5.76514 27.9061V32.9813H2.20068V16.8153H17.7729Z" stroke="#21808D" stroke-width="2"/>
<path d="M34.875 28.0732L34.5537 27.7764L22.8701 16.9824H38.5254V33.1484H34.875V28.0732Z" stroke="#21808D" stroke-width="2"/>
</svg>
